<svg xmlns="http://www.w3.org/2000/svg" xmlns:xlink="http://www.w3.org/1999/xlink" viewBox="0 0 186 36" class="logo">
  <path class="logo__text" fill="#213F99" fill-rule="nonzero" d="M132.4546,17.9195 C131.4636,16.6425 130.5016,16.1605 128.8106,16.1605 C126.3056,16.1605 124.4736,17.8715 124.4736,21.5845 C124.4736,24.8415 125.9206,26.9135 128.8106,26.9135 C130.3546,26.9135 132.3566,26.0465 132.5736,23.8755 L128.8106,23.8755 L128.8106,20.5975 L136.0946,20.5975 L136.0946,30.0015 L132.8396,30.0015 L132.8396,28.5055 C131.7536,29.7345 129.9936,30.4825 127.9446,30.4825 C122.8336,30.4825 120.2536,26.6005 120.2536,21.4645 C120.2536,16.1845 123.4126,12.5925 128.5466,12.5925 C131.9726,12.5925 134.2856,13.7495 135.9736,16.2565 L132.4546,17.9195 Z M144.8452,20.3316 C142.3142,20.3316 141.3242,21.3206 141.3242,23.1756 L141.3242,30.0016 L137.5882,30.0016 L137.5882,17.2686 L140.9632,17.2686 L141.0842,19.0776 C141.8552,17.7506 143.4232,16.9786 144.8452,16.9786 L144.8452,20.3316 Z M148.3598,23.6588 C148.3598,25.8518 149.2758,27.4928 151.3968,27.4928 C153.5448,27.4928 154.4338,25.8518 154.4338,23.5128 C154.4338,21.4878 153.5448,19.8258 151.3968,19.8258 C149.2758,19.8258 148.3598,21.4878 148.3598,23.6588 L148.3598,23.6588 Z M158.1728,23.6588 C158.1728,27.9508 155.3758,30.3608 151.3968,30.3608 C147.4208,30.3608 144.6228,27.9508 144.6228,23.6588 C144.6228,19.3678 147.4208,16.9558 151.3968,16.9558 C155.3758,16.9558 158.1728,19.3678 158.1728,23.6588 L158.1728,23.6588 Z M166.9741,17.2691 L170.7121,17.2691 L170.7121,30.0001 L167.2401,30.0001 L167.1931,28.8421 C166.1071,29.9761 164.7811,30.3361 163.5261,30.3361 C160.9701,30.3361 159.4281,28.7221 159.4281,26.3321 L159.4281,17.2691 L163.1641,17.2691 L163.1641,25.2261 C163.1641,26.8891 163.8161,27.3961 164.9721,27.3961 C166.2031,27.3961 166.9741,26.6231 166.9741,25.4431 L166.9741,17.2691 Z M176.2798,23.6109 C176.2798,26.1909 177.1008,27.5899 178.9588,27.5899 C180.6698,27.5899 181.5378,25.9979 181.5378,23.6109 C181.5378,21.2719 180.6698,19.6789 178.9588,19.6789 C177.2218,19.6789 176.2798,20.9589 176.2798,23.6109 L176.2798,23.6109 Z M172.6888,17.2689 L176.1118,17.2689 L176.1118,18.4519 L176.1838,18.4519 C176.9798,17.5569 178.3288,16.9299 179.7068,16.9299 C182.8148,16.9299 185.1048,19.0289 185.1048,23.5379 C185.1048,28.1189 182.5988,30.2639 179.4168,30.2639 C178.0178,30.2639 177.1008,29.7839 176.4748,29.2289 L176.4258,29.2289 L176.4258,34.4369 L172.6888,34.4369 L172.6888,17.2689 Z M55.0962,26.8492 L58.5792,26.8492 C60.5432,26.8492 61.2302,26.1482 61.2302,24.9372 C61.2302,23.5822 60.5932,22.9942 59.0892,22.9942 L55.0962,22.9942 L55.0962,26.8492 Z M55.0792,19.8422 L58.8432,19.8422 C60.2742,19.8422 61.0222,19.2832 61.0222,17.9862 C61.0222,16.6642 60.2742,16.1472 58.5862,16.1472 L55.0792,16.1472 L55.0792,19.8422 Z M51.0062,12.9932 L59.1212,12.9932 C62.8532,12.9932 65.2712,14.2362 65.2712,17.5252 C65.2712,19.8102 63.8232,20.9792 61.5072,21.3852 L61.5072,21.4332 C63.8232,21.7192 65.4762,22.9132 65.4762,25.3102 C65.4762,28.7112 62.9562,30.0002 58.9282,30.0002 L51.0062,30.0002 L51.0062,12.9932 Z M79.332,12.992 L79.332,16.29 L71.186,16.29 L71.186,19.699 L78.895,19.699 L78.895,22.993 L71.186,22.993 L71.186,26.704 L79.572,26.704 L79.572,30.001 L67.044,30.001 L67.044,12.992 L79.332,12.992 Z M95.873,12.992 L100.016,12.992 L100.016,30.001 L95.874,30.001 L95.873,12.992 Z M100.328,12.992 L105.474,12.992 L108.957,18.567 L112.385,12.992 L117.508,12.992 L111.613,21.283 L117.819,30.001 L112.655,30.001 L108.949,24.037 L105.158,30.001 L100.016,30.001 L106.316,21.283 L100.328,12.992 Z M88.8501,19.7056 C92.0971,20.2486 94.5901,21.5326 94.5901,24.5956 C94.5901,29.3526 90.4791,30.5886 87.2221,30.5886 C84.4131,30.5886 81.4181,29.4006 79.5721,26.7046 L82.5181,24.5586 C83.6411,26.0596 85.2351,27.1486 87.6111,27.1486 C88.6651,27.1486 90.4561,26.5966 90.4561,25.2676 C90.4561,24.3746 89.7821,23.8926 88.4221,23.6566 L85.5811,23.1796 C82.3181,22.6346 80.3401,20.9046 80.3401,18.1016 C80.3401,13.9426 83.7511,12.4076 87.4371,12.4076 C90.0001,12.4076 92.4231,13.2596 94.2711,15.3566 L91.5011,17.8686 C90.4401,16.4856 89.2231,15.8446 87.1841,15.8446 C85.9021,15.8446 84.4391,16.3586 84.4501,17.6086 C84.4571,18.5186 85.1561,19.0446 86.6301,19.2956 L88.8501,19.7056 Z"/>
  <g class="logo__visual">
    <g transform="translate(12 18.476)">
      <path fill="#0098D9" fill-rule="nonzero" d="M25.5044,0.8792 C12.9794,1.4052 4.9974,5.5302 0.7974,8.4712 L9.3134,17.0002 C8.5574,8.0502 22.6784,7.4482 25.8844,7.0592 C25.6244,5.5562 25.4784,3.9002 25.4784,2.1602 C25.4784,1.7992 25.5024,0.9462 25.5044,0.8792" mask="url(#b)"/>
    </g>
    <path fill="#0098D9" fill-rule="nonzero" d="M39.0493,11.7066 C28.2833,11.2366 15.2733,13.7646 5.3193,19.4806 L3.8403,18.0036 C6.3083,16.3406 9.1763,15.0496 12.2713,14.0606 C20.6403,11.3846 30.6703,10.9776 39.0493,11.7066 M49.6421,5.7408 C48.4831,5.3838 47.2171,5.0438 45.8771,4.7298 C34.1321,1.7248 16.1811,-1.2582 1.9361,7.3398 L0.0001,5.4038 C15.6251,-4.2972 39.8841,1.1248 49.6421,5.7408"/>
    <path fill="#213F99" fill-rule="nonzero" d="M5.3188,19.482 L11.8028,25.965 C20.4048,20.439 30.9288,18.749 37.5298,18.818 C37.6708,16.128 38.2178,13.677 39.0488,11.707 C28.2838,11.237 15.2728,13.764 5.3188,19.482"/>
    <path fill="#213F99" fill-rule="nonzero" d="M39.9507,10.0997 C30.6167,8.8387 17.5967,7.9327 6.7327,12.1357 C4.7097,12.9347 2.7447,13.9297 0.9677,15.1287 L2.5077,16.6697 C13.4097,9.3017 30.1727,9.6857 39.9507,10.0997"/>
    <path fill="#EC1D24" fill-rule="nonzero" d="M45.8774,4.7301 C33.9064,1.9371 15.4544,1.3311 4.0584,9.4621 L6.7324,12.1361 C17.5974,7.9331 30.6164,8.8391 39.9504,10.1001 C27.8134,9.8811 18.7064,11.7541 12.2714,14.0601 C20.6404,11.3841 30.6704,10.9771 39.0494,11.7081 C38.2184,13.6771 37.6704,16.1291 37.5294,18.8191 C40.5964,18.8561 42.0234,19.1041 43.7534,19.2531 C44.3434,9.4181 49.6424,5.7411 49.6424,5.7411 C48.4824,5.3831 47.2174,5.0431 45.8774,4.7301"/>
  </g>
  <path class="logo__visual logo__visual-white" fill="#FEFEFE" d="M12.8902198,27.3452486 C17.120606,24.3607705 25.1590059,20.1755208 37.7755497,19.6405767 C37.773218,19.7087032 37.7489016,20.5735407 37.7489016,20.9400143 C37.7489016,22.705934 37.8951331,24.3866116 38.15795,25.9112359 C34.9288662,26.3062354 20.705775,26.9170248 21.4679107,36 L12.8902198,27.3452486 Z M49.9998334,5.82559454 C48.833979,5.46147009 47.557868,5.11748156 46.2078086,4.79933412 C34.3787162,1.75109234 16.2983122,-1.27667793 1.94997485,7.44720681 L0,5.4839552 C15.738702,-4.36149996 40.1713473,1.14164534 49.9998334,5.82559454 Z M4.08798537,9.60141401 C15.5663221,1.35105885 34.1523738,1.96486863 46.2083082,4.79966972 C47.5583677,5.11781716 48.8331462,5.46180569 50,5.82593014 C50,5.82593014 44.6643838,9.55644381 44.069798,19.538152 C42.3273453,19.386797 40.8893471,19.1334201 37.8011652,19.0954975 C31.1521307,19.0250218 20.5525151,20.7399304 11.8875517,26.3484537 L5.35776742,19.769715 C12.8765294,15.4176728 22.1274179,12.886924 30.8576692,12.0949114 C30.909633,12.090213 30.9612637,12.0878638 31.0132275,12.0831654 C31.6877575,12.0234289 32.3596228,11.9720823 33.0264915,11.9331529 C33.1560679,11.9254341 33.2829795,11.9237561 33.4122228,11.9170441 C33.9998135,11.8861691 34.5860717,11.8579788 35.1656679,11.843548 C35.369859,11.8381785 35.5697198,11.8411988 35.7729115,11.8381785 C36.2735628,11.8304597 36.7752133,11.8213985 37.2685363,11.8254257 C37.4963775,11.8274393 37.7178899,11.8385141 37.9437325,11.8428768 C38.4080757,11.8522736 38.8744175,11.8593212 39.3314324,11.8791215 C32.0568337,11.2404774 23.5480948,11.4643217 15.93773,13.2765539 C15.829139,13.3020594 15.7188825,13.3245445 15.6106246,13.3510568 C15.2775233,13.4326073 14.9497517,13.5235545 14.6199814,13.6111457 C14.404798,13.668533 14.1866167,13.7215576 13.9730987,13.7816298 C13.7289355,13.8504275 13.490435,13.9272795 13.2489366,13.9994332 C12.9611371,14.0856821 12.6703397,14.1679037 12.3595562,14.2675765 C11.023487,14.6981494 9.73271954,15.1887946 8.49391591,15.7374982 C6.8437322,16.4680963 5.28914856,17.3050791 3.86947094,18.2685826 L2.5257404,16.9161204 L0.974154672,15.3529023 C2.76524022,14.1356863 4.74386178,13.1255346 6.78210846,12.3153996 L4.08798537,9.60141401 Z"/>

</svg>
