<svg xmlns="http://www.w3.org/2000/svg" width="393" height="219" viewBox="0 0 393 219">
    <g class="wing-l">
    <polygon fill="#FFFFFF" points="196 131 174.667 218.781 113.533 140.02 113.533 115.954 196 115.954"/>
    <path fill="#4098C9" d="M175.25113,115.954046 C172.924219,143.360008 167.012893,170.348063 156.107836,194.870917 L145.549345,181.267865 C154.818886,160.172638 160.513505,138.131463 163.577504,115.954046 L175.25113,115.954046 Z"/>
    <path fill="#004D8D" d="M131.842203,115.954046 L116.956756,144.430553 L113.533333,140.01998 L113.533333,115.954046 L131.842203,115.954046 Z"/>
    <path fill="#E20512" d="M115.521251,142.581118 L136.027138,168.999913 C143.605857,152.504274 149.026612,134.555492 152.676043,115.954046 L119.817397,115.954046 C118.761018,124.880641 117.34955,133.78169 115.521251,142.581118 Z"/>
    <path fill="#000000" d="M113.533333,121.843083 L113.533333,115.954046 L134.440826,115.954046 L196.293607,131.401196 L113.533333,121.843083 Z" opacity=".3"/>
    <polygon fill="#FFFFFF" points="0 0 185.583 32.716 196 23 196 131 113.533 118.041 87.333 113.665"/>
    <polygon fill="#27348B" points="196 23 185.498 32.698 168.506 29.686 196 131" opacity=".4"/>
    <path fill="#FFFFFF" d="M131.411066,23.2671688 L134.357946,23.7866735 C136.761923,54.2012884 137.377751,88.0020693 133.18923,121.251787 L124.739142,119.914826 C130.488854,86.7345433 131.679753,52.6930056 131.411066,23.2671688 Z"/>
    <path fill="#E20512" d="M121.937723,21.5971158 L129.059643,22.8526371 C127.814296,60.387169 123.256904,92.208216 117.108018,118.70744 L115.624257,118.472681 C121.346443,86.7134295 122.988079,52.9778635 121.937723,21.5971158 Z M132.82255,23.515999 L168.570618,29.8180159 C170.20102,61.335594 168.708317,94.6537882 162.312493,125.85963 L132.542985,121.149539 C136.368586,87.6490569 135.424403,53.747555 132.82255,23.515999 Z"/>
    <path fill="#4098C9" d="M43.9599182 7.85043029L77.9823462 13.8482347C76.2371678 41.7376301 71.6124407 65.5657418 65.6942644 85.6027001L37.7868149 49.2807866C41.6528941 33.2843267 43.0733345 17.3255837 43.9599182 7.85043029zM120.642506 21.3687824L121.941906 21.5978533C122.990777 52.9784623 121.346542 86.7136353 115.62428 118.472685L113.533333 118.141858 107.054506 117.059839C115.332894 85.3046806 119.825338 52.3329932 120.642506 21.3687824zM172.470832 30.5055835L179.826211 31.8022613C184.468845 62.6064511 186.429113 96.2860706 183.340361 129.186631L172.512034 127.473388C177.097822 94.629513 176.095697 61.406035 172.470832 30.5055835z"/>
    <path fill="#004D8D" d="M81.2890845 14.4311787L120.642916 21.3688547C119.825576 52.3330674 115.33284 85.3047172 107.05434 117.059811L87.3333333 113.766234 69.5126111 90.5723288C77.2635922 62.9314874 80.6720021 36.0050274 81.2890845 14.4311787zM130.242364 23.0611387L132.823329 23.5161364C135.424279 53.7479946 136.368588 87.6487593 132.542601 121.149479L124.344566 119.852397C129.770163 86.3498849 130.664916 52.1910445 130.242364 23.0611387z"/>
    <polygon fill="#FFFFFF" points="30.877 113 0 20.515 118 0" opacity=".05" transform="matrix(-1 0 0 1 118 0)"/>
    <polygon fill="#FFFFFF" points="117.873 21 185 32.836 87 114" opacity=".1"/>
    </g>
    <g class="wing-r">
    <g transform="translate(195)">
      <polygon fill="#FFFFFF" points="83.467 131 62.133 218.781 1 140.02 1 115.954 83.467 115.954" transform="matrix(-1 0 0 1 84.467 0)"/>
      <path fill="#4098C9" d="M51.4506553,115.954046 C49.1237447,143.360008 43.2124182,170.348063 32.3073618,194.870917 L21.7488704,181.267865 C31.0184115,160.172638 36.7130304,138.131463 39.7770294,115.954046 L51.4506553,115.954046 Z" transform="matrix(-1 0 0 1 73.2 0)"/>
      <path fill="#004D8D" d="M83.4666667,115.954046 L68.5812197,144.430553 L65.1577967,140.01998 L65.1577967,115.954046 L83.4666667,115.954046 Z" transform="matrix(-1 0 0 1 148.624 0)"/>
      <path fill="#E20512" d="M44.3239575,142.581118 L64.8298439,168.999913 C72.4085628,152.504274 77.8293182,134.555492 81.4787487,115.954046 L48.6201035,115.954046 C47.5637239,124.880641 46.1522563,133.78169 44.3239575,142.581118 Z" transform="matrix(-1 0 0 1 125.803 0)"/>
      <path fill="#000000" d="M0.706393229,121.843083 L0.706393229,115.954046 L21.6138859,115.954046 L83.4666667,131.401196 L0.706393229,121.843083 Z" opacity=".3" transform="matrix(-1 0 0 1 84.173 0)"/>
      <polygon fill="#FFFFFF" points="1 0 186.583 32.716 197 23 197 131 114.533 118.041 88.333 113.665" transform="matrix(-1 0 0 1 198 0)"/>
      <path fill="#FFFFFF" d="M67.4217739,23.2671688 L70.3686538,23.7866735 C72.7726311,54.2012884 73.3884589,88.0020693 69.1999381,121.251787 L60.7498499,119.914826 C66.4995622,86.7345433 67.6904605,52.6930056 67.4217739,23.2671688 Z" transform="matrix(-1 0 0 1 133.01 0)"/>
      <path fill="#E20512" d="M34.1330627,21.5971158 L41.2549825,22.8526371 C40.0096365,60.387169 35.4522439,92.208216 29.3033579,118.70744 L27.8195971,118.472681 C33.5417834,86.7134295 35.1834195,52.9778635 34.1330627,21.5971158 Z M45.0178903,23.515999 L80.7659579,29.8180159 C82.3963604,61.335594 80.9036569,94.6537882 74.5078329,125.85963 L44.7383252,121.149539 C48.5639265,87.6490569 47.6197431,53.747555 45.0178903,23.515999 Z" transform="matrix(-1 0 0 1 109.195 0)"/>
      <path fill="#4098C9" d="M125.190757,7.85043029 L159.213185,13.8482347 C157.468007,41.7376301 152.84328,65.5657418 146.925103,85.6027001 L119.017654,49.2807866 C122.883733,33.2843267 124.304173,17.3255837 125.190757,7.85043029 Z" transform="matrix(-1 0 0 1 278.23 0)"/>
      <path fill="#4098C9" d="M88.3492475,21.3687824 L89.6486476,21.5978533 C90.6975181,52.9784623 89.0532832,86.7136353 83.3310215,118.472685 L81.2400747,118.141858 L74.7612477,117.059839 C83.0396356,85.3046806 87.5320796,52.3329932 88.3492475,21.3687824 Z" transform="matrix(-1 0 0 1 164.707 0)"/>
      <path fill="#4098C9" d="M12.1662036,30.5055835 L19.5215829,31.8022613 C24.1642168,62.6064511 26.1244853,96.2860706 23.0357333,129.186631 L12.2074063,127.473388 C16.793194,94.629513 15.7910688,61.406035 12.1662036,30.5055835 Z" transform="matrix(-1 0 0 1 36.695 0)"/>
      <path fill="#004D8D" d="M88.1335575,14.4311787 L127.487389,21.3688547 C126.670049,52.3330674 122.177313,85.3047172 113.898812,117.059811 L94.1778063,113.766234 L76.3570841,90.5723288 C84.1080652,62.9314874 87.5164751,36.0050274 88.1335575,14.4311787 Z" transform="matrix(-1 0 0 1 203.844 0)"/>
      <path fill="#004D8D" d="M67.7983614,23.0611387 L70.3793266,23.5161364 C72.9802765,53.7479946 73.9245852,87.6487593 70.0985985,121.149479 L61.9005626,119.852397 C67.32616,86.3498849 68.2209134,52.1910445 67.7983614,23.0611387 Z" transform="matrix(-1 0 0 1 134.556 0)"/>
      <polygon fill="#FFFFFF" points="109.877 113 79 20.515 197 0" opacity=".05"/>
      <polygon fill="#FFFFFF" points="42.873 21 110 32.836 12 114" opacity=".1" transform="matrix(-1 0 0 1 122 0)"/>
      <polygon fill="#FFFFFF" points="110.877 115 80 20.816 198 0" opacity=".1"/>
      <polygon fill="#000000" points="12 33.26 110 115 79.127 21" opacity=".1"/>
    </g>
    </g>
</svg>
