<svg xmlns="http://www.w3.org/2000/svg" width="1440" height="800" viewBox="0 0 1440 800">
  <defs>
    <filter id="a" width="133.1%" height="159.4%" x="-16.5%" y="-25.1%" filterUnits="objectBoundingBox">
      <feOffset dy="10" in="SourceAlpha" result="shadowOffsetOuter1"/>
      <feGaussianBlur in="shadowOffsetOuter1" result="shadowBlurOuter1" stdDeviation="20"/>
      <feColorMatrix in="shadowBlurOuter1" result="shadowMatrixOuter1" values="0 0 0 0 0 0 0 0 0 0.170370322 0 0 0 0 0.310400723 0 0 0 0.189792799 0"/>
      <feMerge>
        <feMergeNode in="shadowMatrixOuter1"/>
        <feMergeNode in="SourceGraphic"/>
      </feMerge>
    </filter>
  </defs>
  <g fill="none" fill-rule="evenodd">
    <g fill-rule="nonzero" filter="url(#a)" transform="translate(442 226)">
      <polygon fill="#FFFFFF" points="196 131 174.667 218.781 113.533 140.02 113.533 115.954 196 115.954"/>
      <path fill="#4098C9" d="M175.25113,115.954046 C172.924219,143.360008 167.012893,170.348063 156.107836,194.870917 L145.549345,181.267865 C154.818886,160.172638 160.513505,138.131463 163.577504,115.954046 L175.25113,115.954046 Z"/>
      <polygon fill="#004D8D" points="131.842 115.954 116.957 144.431 113.533 140.02 113.533 115.954"/>
      <path fill="#E20512" d="M115.521251,142.581118 L136.027138,168.999913 C143.605857,152.504274 149.026612,134.555492 152.676043,115.954046 L119.817397,115.954046 C118.761018,124.880641 117.34955,133.78169 115.521251,142.581118 Z"/>
      <polygon fill="#000000" points="113.533 121.843 113.533 115.954 134.441 115.954 196.294 131.401" opacity=".3"/>
      <polygon fill="#FFFFFF" points="0 0 185.583 32.716 196 23 196 131 113.533 118.041 87.333 113.665"/>
      <polygon fill="#27348B" points="196 23 185.498 32.698 168.506 29.686 196 131" opacity=".4"/>
      <path fill="#FFFFFF" d="M131.411066,23.2671688 L134.357946,23.7866735 C136.761923,54.2012884 137.377751,88.0020693 133.18923,121.251787 L124.739142,119.914826 C130.488854,86.7345433 131.679753,52.6930056 131.411066,23.2671688 Z"/>
      <path fill="#E20512" d="M121.937723,21.5971158 L129.059643,22.8526371 C127.814296,60.387169 123.256904,92.208216 117.108018,118.70744 L115.624257,118.472681 C121.346443,86.7134295 122.988079,52.9778635 121.937723,21.5971158 Z M132.82255,23.515999 L168.570618,29.8180159 C170.20102,61.335594 168.708317,94.6537882 162.312493,125.85963 L132.542985,121.149539 C136.368586,87.6490569 135.424403,53.747555 132.82255,23.515999 Z"/>
      <path fill="#4098C9" d="M43.9599182,7.85043029 L77.9823462,13.8482347 C76.2371678,41.7376301 71.6124407,65.5657418 65.6942644,85.6027001 L37.7868149,49.2807866 C41.6528941,33.2843267 43.0733345,17.3255837 43.9599182,7.85043029 Z M120.642506,21.3687824 L121.941906,21.5978533 C122.990777,52.9784623 121.346542,86.7136353 115.62428,118.472685 L113.533333,118.141858 L107.054506,117.059839 C115.332894,85.3046806 119.825338,52.3329932 120.642506,21.3687824 Z M172.470832,30.5055835 L179.826211,31.8022613 C184.468845,62.6064511 186.429113,96.2860706 183.340361,129.186631 L172.512034,127.473388 C177.097822,94.629513 176.095697,61.406035 172.470832,30.5055835 Z"/>
      <path fill="#004D8D" d="M81.2890845,14.4311787 L120.642916,21.3688547 C119.825576,52.3330674 115.33284,85.3047172 107.05434,117.059811 L87.3333333,113.766234 L69.5126111,90.5723288 C77.2635922,62.9314874 80.6720021,36.0050274 81.2890845,14.4311787 Z M130.242364,23.0611387 L132.823329,23.5161364 C135.424279,53.7479946 136.368588,87.6487593 132.542601,121.149479 L124.344566,119.852397 C129.770163,86.3498849 130.664916,52.1910445 130.242364,23.0611387 Z"/>
      <polygon fill="#FFFFFF" points="30.877 113 0 20.515 118 0" opacity=".05" transform="matrix(-1 0 0 1 118 0)"/>
      <polygon fill="#FFFFFF" points="117.873 21 185 32.836 87 114" opacity=".1"/>
      <g transform="translate(195)">
        <polygon fill="#FFFFFF" points="83.467 131 62.133 218.781 1 140.02 1 115.954 83.467 115.954" transform="matrix(-1 0 0 1 84.467 0)"/>
        <path fill="#4098C9" d="M51.4511296,115.954046 C49.124219,143.360008 43.2128925,170.348063 32.3078361,194.870917 L21.7493447,181.267865 C31.0188858,160.172638 36.7135047,138.131463 39.7775037,115.954046 L51.4511296,115.954046 Z" transform="matrix(-1 0 0 1 73.2 0)"/>
        <polygon fill="#004D8D" points="83.466 115.954 68.581 144.431 65.157 140.02 65.157 115.954" transform="matrix(-1 0 0 1 148.624 0)"/>
        <path fill="#E20512" d="M44.3242513,142.581118 L64.8301377,168.999913 C72.4088566,152.504274 77.829612,134.555492 81.4790425,115.954046 L48.6203973,115.954046 C47.5640177,124.880641 46.1525501,133.78169 44.3242513,142.581118 Z" transform="matrix(-1 0 0 1 125.803 0)"/>
        <polygon fill="#000000" points=".706 121.843 .706 115.954 21.614 115.954 83.467 131.401" opacity=".3" transform="matrix(-1 0 0 1 84.173 0)"/>
        <polygon fill="#FFFFFF" points="1 0 186.583 32.716 197 23 197 131 114.533 118.041 88.333 113.665" transform="matrix(-1 0 0 1 198 0)"/>
        <path fill="#FFFFFF" d="M67.421066,23.2671688 L70.3679459,23.7866735 C72.7719232,54.2012884 73.387751,88.0020693 69.1992302,121.251787 L60.749142,119.914826 C66.4988543,86.7345433 67.6897526,52.6930056 67.421066,23.2671688 Z" transform="matrix(-1 0 0 1 133.01 0)"/>
        <path fill="#E20512" d="M34.1327226,21.5971158 L41.2546424,22.8526371 C40.0092964,60.387169 35.4519038,92.208216 29.3030178,118.70744 L27.819257,118.472681 C33.5414433,86.7134295 35.1830794,52.9778635 34.1327226,21.5971158 Z M45.0175502,23.515999 L80.7656178,29.8180159 C82.3960203,61.335594 80.9033168,94.6537882 74.5074928,125.85963 L44.7379851,121.149539 C48.5635864,87.6490569 47.619403,53.747555 45.0175502,23.515999 Z" transform="matrix(-1 0 0 1 109.195 0)"/>
        <path fill="#4098C9" d="M125.189918,7.85043029 L159.212346,13.8482347 C157.467168,41.7376301 152.842441,65.5657418 146.924264,85.6027001 L119.016815,49.2807866 C122.882894,33.2843267 124.303334,17.3255837 125.189918,7.85043029 Z" transform="matrix(-1 0 0 1 278.23 0)"/>
        <path fill="#4098C9" d="M88.3495061,21.3687824 L89.6489062,21.5978533 C90.6977767,52.9784623 89.0535418,86.7136353 83.3312801,118.472685 L81.2403333,118.141858 L74.7615063,117.059839 C83.0398942,85.3046806 87.5323382,52.3329932 88.3495061,21.3687824 Z" transform="matrix(-1 0 0 1 164.707 0)"/>
        <path fill="#4098C9" d="M12.1658317,30.5055835 L19.521211,31.8022613 C24.1638449,62.6064511 26.1241134,96.2860706 23.0353614,129.186631 L12.2070344,127.473388 C16.7928221,94.629513 15.7906969,61.406035 12.1658317,30.5055835 Z" transform="matrix(-1 0 0 1 36.695 0)"/>
        <path fill="#004D8D" d="M88.1330844,14.4311787 L127.486916,21.3688547 C126.669576,52.3330674 122.17684,85.3047172 113.898339,117.059811 L94.1773332,113.766234 L76.356611,90.5723288 C84.1075921,62.9314874 87.516002,36.0050274 88.1330844,14.4311787 Z" transform="matrix(-1 0 0 1 203.844 0)"/>
        <path fill="#004D8D" d="M67.7983643,23.0611387 L70.3793295,23.5161364 C72.9802794,53.7479946 73.9245881,87.6487593 70.0986014,121.149479 L61.9005655,119.852397 C67.3261629,86.3498849 68.2209163,52.1910445 67.7983643,23.0611387 Z" transform="matrix(-1 0 0 1 134.556 0)"/>
        <polygon fill="#FFFFFF" points="109.877 113 79 20.515 197 0" opacity=".05"/>
        <polygon fill="#FFFFFF" points="42.873 21 110 32.836 12 114" opacity=".1" transform="matrix(-1 0 0 1 122 0)"/>
        <polygon fill="#FFFFFF" points="110.877 115 80 20.816 198 0" opacity=".1"/>
        <polygon fill="#000000" points="12 33.26 110 115 79.127 21" opacity=".1"/>
      </g>
    </g>
    <path stroke="#979797" d="M-11,474 C146,329 318,188 671,186 C1024,184 968,463 671,463 C374,463 617,886 915,617 C1113.66667,437.666667 1299,229.666667 1471,-7"/>
  </g>
</svg>
