<svg xmlns="http://www.w3.org/2000/svg" width="22" height="22" viewBox="0 0 22 22">
  <path fill="#FFFFFF" fill-rule="evenodd" d="M100.747231,18.7463375 L97.4843563,18.7463375 L97.4843563,13.6409625 C97.4843563,12.4234 97.4637313,10.857275 95.7889813,10.857275 C94.0915438,10.857275 93.8323563,12.18415 93.8323563,13.55365 L93.8323563,18.7463375 L90.5729188,18.7463375 L90.5729188,8.247525 L93.7010438,8.247525 L93.7010438,9.683025 L93.7457313,9.683025 C94.1809188,8.8573375 95.2451688,7.9869625 96.8326063,7.9869625 C100.136731,7.9869625 100.747231,10.1608375 100.747231,12.988525 L100.747231,18.7463375 Z M86.8941063,6.8134 C85.8456688,6.8134 85.0007313,5.9657125 85.0007313,4.9207125 C85.0007313,3.8764 85.8456688,3.0287125 86.8941063,3.0287125 C87.9377313,3.0287125 88.7854188,3.8764 88.7854188,4.9207125 C88.7854188,5.9657125 87.9377313,6.8134 86.8941063,6.8134 L86.8941063,6.8134 Z M88.5262313,18.7463375 L85.2599188,18.7463375 L85.2599188,8.247525 L88.5262313,8.247525 L88.5262313,18.7463375 Z M103.083356,0.000275 L82.9169188,0.000275 C82.4102313,0.000275 81.9997938,0.4107125 81.9997938,0.9167125 L81.9997938,21.08315 C81.9997938,21.5898375 82.4102313,22.000275 82.9169188,22.000275 L103.083356,22.000275 C103.589356,22.000275 103.999794,21.5898375 103.999794,21.08315 L103.999794,0.9167125 C103.999794,0.4107125 103.589356,0.000275 103.083356,0.000275 L103.083356,0.000275 Z" transform="translate(-82)"/>
</svg>
