<svg xmlns="http://www.w3.org/2000/svg" width="21" height="18" viewBox="0 0 21 18">
  <path fill="#FFFFFF" fill-rule="evenodd" d="M62.5714286,4.62002857 C61.8147857,4.9556 61.0009286,5.18252857 60.1472143,5.28474286 C61.0189286,4.7621 61.6881429,3.93538571 62.0031429,2.94988571 C61.188,3.43331429 60.2841429,3.78431429 59.3230714,3.97395714 C58.5529286,3.15367143 57.4562143,2.64131429 56.2425,2.64131429 C53.9115,2.64131429 52.0221429,4.53067143 52.0221429,6.86167143 C52.0221429,7.1921 52.0594286,7.51417143 52.1314286,7.82338571 C48.6233571,7.64724286 45.5138571,5.96681429 43.4322857,3.41338571 C43.0690714,4.03695714 42.8607857,4.7621 42.8607857,5.53545714 C42.8607857,6.99924286 43.6058571,8.29138571 44.7379286,9.04802857 C44.0462143,9.02617143 43.3956429,8.83652857 42.8267143,8.52024286 C42.8260714,8.53824286 42.8260714,8.5556 42.8260714,8.5736 C42.8260714,10.6185286 44.2808571,12.3240286 46.212,12.7116714 C45.8577857,12.8081 45.4849286,12.8595286 45.0998571,12.8595286 C44.8279286,12.8595286 44.5637143,12.8331714 44.3059286,12.7843143 C44.8427143,14.4608857 46.4016429,15.6810286 48.2485714,15.7151 C46.8040714,16.8471714 44.9841429,17.5215286 43.0067143,17.5215286 C42.666,17.5215286 42.3304286,17.5016 42,17.4630286 C43.8675,18.6600286 46.086,19.3588143 48.4697143,19.3588143 C56.2328571,19.3588143 60.4776429,12.9276714 60.4776429,7.35088571 C60.4776429,7.16767143 60.4737857,6.98574286 60.4654286,6.80445714 C61.2902143,6.20981429 62.0057143,5.46667143 62.5714286,4.62002857" transform="translate(-42 -2)"/>
</svg>
